<svg viewBox="0 0 212 120" fill="none" xmlns="http://www.w3.org/2000/svg">
    <path d="M165.882 112.941C165.882 112.941 162.353 112.941 162.353 109.412C162.353 105.882 165.882 95.2941 183.529 95.2941C201.176 95.2941 204.706 105.882 204.706 109.412C204.706 112.941 201.176 112.941 201.176 112.941H165.882ZM183.529 91.7647C186.338 91.7647 189.031 90.6492 191.016 88.6635C193.002 86.6778 194.118 83.9847 194.118 81.1765C194.118 78.3683 193.002 75.6752 191.016 73.6895C189.031 71.7038 186.338 70.5883 183.529 70.5883C180.721 70.5883 178.028 71.7038 176.042 73.6895C174.057 75.6752 172.941 78.3683 172.941 81.1765C172.941 83.9847 174.057 86.6778 176.042 88.6635C178.028 90.6492 180.721 91.7647 183.529 91.7647Z" fill="#757575"/>
    <path d="M14.1176 21.1765V28.2353H91.7647V84.7059H42.3529V91.7647H105.882V84.7059H98.8235V21.1765H14.1176ZM28.2424 31.7647C24.5015 31.7777 20.9174 33.2691 18.2715 35.9136C15.6257 38.5582 14.1325 42.1415 14.1176 45.8824C14.1176 53.6435 20.4847 60 28.2424 60C31.9814 59.9851 35.5629 58.4927 38.2061 55.8482C40.8493 53.2036 42.3399 49.6214 42.3529 45.8824C42.3529 38.1282 35.9929 31.7647 28.2424 31.7647ZM49.4118 35.2941V42.353H67.0588V35.2941H49.4118ZM74.1176 35.2941V42.353H84.7059V35.2941H74.1176ZM28.2424 38.8235C32.1741 38.8235 35.2941 41.94 35.2941 45.8824C35.2941 49.8353 32.1776 52.9412 28.2424 52.9412C24.2894 52.9412 21.1765 49.8353 21.1765 45.8824C21.1765 41.94 24.2929 38.8235 28.2424 38.8235ZM49.4118 49.4118V56.4706H84.7059V49.4118H49.4118ZM14.1176 63.5294V91.7647H21.1765V70.5882H31.7647V91.7647H38.8235V72.9106L46.1082 76.7647C48.1729 77.8588 50.6541 77.8553 52.7153 76.7647V76.7718L65.1741 70.1824L61.8812 63.9353L49.4188 70.5247L38.4918 64.7577C36.9668 63.952 35.2683 63.5304 33.5435 63.5294H14.1176Z" fill="#757575"/>
    <path d="M112.941 58.2471C112.941 68.9705 125.583 77.6654 141.175 77.6654C143.878 77.668 146.575 77.398 149.227 76.8592C156.94 85.3531 167.793 84.694 167.793 84.694C169.416 83.3206 167.793 82.1953 167.793 82.1953C162.18 79.1005 159.967 75.814 159.196 73.1971C165.438 69.6336 169.412 64.2594 169.412 58.2444C169.412 47.5197 156.767 38.8235 141.178 38.8235C125.583 38.8235 112.944 47.5184 112.944 58.2471" fill="#757575"/>
    <path d="M138.982 49.1912C138.951 48.8845 138.985 48.5747 139.081 48.2819C139.177 47.989 139.334 47.7196 139.541 47.491C139.747 47.2624 140 47.0797 140.282 46.9546C140.563 46.8296 140.868 46.765 141.176 46.765C141.485 46.765 141.79 46.8296 142.071 46.9546C142.353 47.0797 142.606 47.2624 142.812 47.491C143.019 47.7196 143.176 47.989 143.272 48.2819C143.368 48.5747 143.402 48.8845 143.371 49.1912L142.515 63.1985C142.482 63.5307 142.327 63.8387 142.08 64.0627C141.832 64.2868 141.51 64.4108 141.176 64.4108C140.843 64.4108 140.521 64.2868 140.273 64.0627C140.026 63.8387 139.871 63.5307 139.838 63.1985L138.982 49.1912ZM138.971 68.8235C138.971 68.2385 139.203 67.6774 139.617 67.2637C140.03 66.8501 140.591 66.6176 141.176 66.6176C141.762 66.6176 142.323 66.8501 142.736 67.2637C143.15 67.6774 143.382 68.2385 143.382 68.8235C143.382 69.4086 143.15 69.9696 142.736 70.3833C142.323 70.797 141.762 71.0294 141.176 71.0294C140.591 71.0294 140.03 70.797 139.617 70.3833C139.203 69.9696 138.971 69.4086 138.971 68.8235Z" fill="white"/>
</svg>
