<svg width="83" height="83" viewBox="0 0 83 83" fill="none" xmlns="http://www.w3.org/2000/svg">
    <ellipse cx="41.5001" cy="41.5" rx="39.3158" ry="38.2237" fill="#FEFE87"/>
    <path d="M27.39 26.0758C24.6233 24.9 23.4475 21.4762 25.1075 18.9862C28.462 14.0062 34.0645 10.375 41.4654 10.375C49.5925 10.375 55.1604 14.0754 57.9962 18.7096C60.417 22.6867 61.835 30.1221 58.1 35.6554C53.95 41.7767 49.9729 43.6442 47.8287 47.5867C47.31 48.5204 46.9987 49.2812 46.7912 50.8375C46.48 53.3621 44.405 55.3333 41.8458 55.3333C38.837 55.3333 36.3816 52.7396 36.7275 49.7308C36.935 47.9671 37.35 46.1342 38.3183 44.405C40.9812 39.5979 46.0995 36.7621 49.0737 32.5083C52.2208 28.0471 50.457 19.7125 41.5345 19.7125C37.4883 19.7125 34.86 21.8221 33.2345 24.3467C32.0241 26.3179 29.4995 26.9404 27.39 26.0758Z" fill="#757575"/>
    <path d="M48.4166 69.1667C48.4166 72.9708 45.3041 76.0833 41.4999 76.0833C37.6958 76.0833 34.5833 72.9708 34.5833 69.1667C34.5833 65.3625 37.6958 62.25 41.4999 62.25C45.3041 62.25 48.4166 65.3625 48.4166 69.1667Z" fill="#757575"/>
</svg>
