<svg width="118" height="148" viewBox="0 0 118 148" fill="none" xmlns="http://www.w3.org/2000/svg">
    <rect x="1.5" y="2.40704" width="115" height="143.095" rx="4.5" fill="#757575" stroke="#757575" stroke-width="3"/>
    <line x1="15.006" y1="147.013" x2="15.006" y2="0.899414" stroke="white" stroke-width="3"/>
    <circle cx="63.9167" cy="47.9666" r="34.4167" fill="white"/>
    <path d="M39.8809 41.7622C39.3602 43.7892 39.0975 45.8738 39.0991 47.9666C39.0991 50.1071 39.3721 52.1856 39.8809 54.171H48.7159C48.2977 50.0453 48.2977 45.8879 48.7159 41.7622H39.8809ZM42.4185 35.5579H49.6962C50.5214 31.7825 51.7126 28.4011 53.1737 25.5874C48.6699 27.7572 44.9226 31.231 42.4185 35.5579ZM87.9523 41.7622H79.1173C79.5355 45.8879 79.5355 50.0453 79.1173 54.171H87.9523C88.9967 50.1006 88.9967 45.8325 87.9523 41.7622ZM85.4147 35.5579C82.9106 31.231 79.1633 27.7572 74.6595 25.5874C76.1237 28.4011 77.3118 31.7825 78.137 35.5579H85.4147ZM54.9575 41.7622C54.7251 43.8222 54.6091 45.8936 54.6101 47.9666C54.6101 50.0916 54.7279 52.17 54.9575 54.171H72.8757C73.3429 50.0479 73.3429 45.8853 72.8757 41.7622H54.9575ZM56.0681 35.5579H71.7651C71.2006 33.2259 70.3862 30.9617 69.3361 28.8044C67.3879 24.9112 65.3033 23.1491 63.9166 23.1491C62.5268 23.1491 60.4453 24.9112 58.4971 28.8044C57.5199 30.765 56.6978 33.0451 56.0681 35.5579ZM42.4185 60.3753C44.9226 64.7021 48.6699 68.176 53.1737 70.3457C51.7095 67.5321 50.5214 64.1507 49.6962 60.3753H42.4185ZM85.4147 60.3753H78.137C77.3118 64.1507 76.1206 67.5321 74.6595 70.3457C79.1633 68.176 82.9106 64.7021 85.4147 60.3753ZM56.0681 60.3753C56.6978 62.8881 57.5199 65.1682 58.4971 67.1288C60.4453 71.022 62.5299 72.784 63.9166 72.784C65.3064 72.784 67.3879 71.022 69.3361 67.1288C70.3133 65.1682 71.1354 62.8881 71.7651 60.3753H56.0681ZM63.9166 78.9884C46.7832 78.9884 32.8948 65.0999 32.8948 47.9666C32.8948 30.8332 46.7832 16.9448 63.9166 16.9448C81.05 16.9448 94.9384 30.8332 94.9384 47.9666C94.9384 65.0999 81.05 78.9884 63.9166 78.9884Z" fill="#757575"/>
</svg>
