<svg width="128" height="128" viewBox="0 0 128 128" fill="none" xmlns="http://www.w3.org/2000/svg">
    <path d="M50.6667 16C59.8608 16 68.6784 19.6524 75.1797 26.1536C81.681 32.6549 85.3333 41.4725 85.3333 50.6667C85.3333 59.2533 82.1867 67.1467 77.0133 73.2267L78.4533 74.6667H82.6667L109.333 101.333L101.333 109.333L74.6667 82.6667V78.4533L73.2267 77.0133C66.9363 82.3828 58.9371 85.3328 50.6667 85.3333C41.4725 85.3333 32.6549 81.681 26.1536 75.1797C19.6524 68.6784 16 59.8608 16 50.6667C16 41.4725 19.6524 32.6549 26.1536 26.1536C32.6549 19.6524 41.4725 16 50.6667 16ZM50.6667 26.6667C37.3333 26.6667 26.6667 37.3333 26.6667 50.6667C26.6667 64 37.3333 74.6667 50.6667 74.6667C64 74.6667 74.6667 64 74.6667 50.6667C74.6667 37.3333 64 26.6667 50.6667 26.6667Z" fill="#757575"/>
</svg>
