<svg width="95" height="95" viewBox="0 0 95 95" fill="none" xmlns="http://www.w3.org/2000/svg">
    <path d="M15.8306 0C16.8802 0 17.8869 0.357402 18.6291 0.993581C19.3713 1.62976 19.7882 2.49261 19.7882 3.3923V6.7846H35.6188V3.3923C35.6188 2.49261 36.0358 1.62976 36.778 0.993581C37.5202 0.357402 38.5268 0 39.5765 0C40.6261 0 41.6327 0.357402 42.3749 0.993581C43.1171 1.62976 43.5341 2.49261 43.5341 3.3923V6.7846H59.3647V3.3923C59.3647 2.49261 59.7817 1.62976 60.5239 0.993581C61.2661 0.357402 62.2727 0 63.3223 0C64.372 0 65.3786 0.357402 66.1208 0.993581C66.863 1.62976 67.28 2.49261 67.28 3.3923V6.7846C70.4289 6.7846 73.4488 7.8568 75.6754 9.76534C77.902 11.6739 79.1529 14.2624 79.1529 16.9615V34.1672C76.3152 34.5902 73.6162 35.5295 71.2376 36.9218V16.9615C71.2376 16.0618 70.8207 15.199 70.0785 14.5628C69.3363 13.9266 68.3296 13.5692 67.28 13.5692H11.8729C10.8233 13.5692 9.81666 13.9266 9.07446 14.5628C8.33226 15.199 7.91529 16.0618 7.91529 16.9615V84.8075C7.91529 85.7072 8.33226 86.57 9.07446 87.2062C9.81666 87.8424 10.8233 88.1998 11.8729 88.1998H24.1179V88.2133C23.4428 90.4612 23.6315 92.8358 24.6561 94.9844H11.8729C8.72404 94.9844 5.70411 93.9122 3.4775 92.0036C1.2509 90.0951 0 87.5066 0 84.8075V16.9615C0 14.2624 1.2509 11.6739 3.4775 9.76534C5.70411 7.8568 8.72404 6.7846 11.8729 6.7846V3.3923C11.8729 2.49261 12.2899 1.62976 13.0321 0.993581C13.7743 0.357402 14.781 0 15.8306 0ZM55.407 47.4922C56.254 47.4922 57.0376 47.7229 57.6866 48.1096L50.4837 54.2768H23.7459C22.6962 54.2768 21.6896 53.9194 20.9474 53.2832C20.2052 52.647 19.7882 51.7842 19.7882 50.8845C19.7882 49.9848 20.2052 49.1219 20.9474 48.4858C21.6896 47.8496 22.6962 47.4922 23.7459 47.4922H55.407ZM31.6295 70.7973C31.5046 69.9807 31.0374 69.2309 30.315 68.6879C29.5926 68.1448 28.6644 67.8456 27.7035 67.846H23.7459C22.6962 67.846 21.6896 68.2034 20.9474 68.8396C20.2052 69.4757 19.7882 70.3386 19.7882 71.2383C19.7882 72.138 20.2052 73.0008 20.9474 73.637C21.6896 74.2732 22.6962 74.6306 23.7459 74.6306H27.7035C28.1257 74.6314 28.5453 74.5742 28.9462 74.461C29.714 73.1787 30.6084 71.9507 31.6295 70.7973ZM23.7459 27.1384C22.6962 27.1384 21.6896 27.4958 20.9474 28.132C20.2052 28.7682 19.7882 29.631 19.7882 30.5307C19.7882 31.4304 20.2052 32.2932 20.9474 32.9294C21.6896 33.5656 22.6962 33.923 23.7459 33.923H55.407C56.4567 33.923 57.4633 33.5656 58.2055 32.9294C58.9477 32.2932 59.3647 31.4304 59.3647 30.5307C59.3647 29.631 58.9477 28.7682 58.2055 28.132C57.4633 27.4958 56.4567 27.1384 55.407 27.1384H23.7459ZM73.913 43.7946C76.2295 41.809 79.3714 40.6934 82.6475 40.6934C85.9236 40.6934 89.0655 41.809 91.382 43.7946C93.6986 45.7802 95 48.4733 95 51.2814C95 54.0895 93.6986 56.7826 91.382 58.7682L57.4334 87.8605C54.6171 90.2764 51.0877 91.9907 47.2226 92.8201L37.6372 94.8758C36.828 95.0497 35.98 95.0408 35.1759 94.8502C34.3718 94.6595 33.6391 94.2935 33.0492 93.7878C32.4593 93.2822 32.0323 92.6541 31.8098 91.9649C31.5874 91.2757 31.5771 90.5489 31.7799 89.8552L34.1861 81.6459C35.1518 78.3282 37.1465 75.3023 39.9643 72.8937L73.913 43.7946Z" fill="#757575"/>
</svg>
