<svg width="inherit" height="inherit" viewBox="0 0 163 163" fill="none" xmlns="http://www.w3.org/2000/svg">
    <path class="rec" d="M81.5 108.667C96.4825 108.667 108.667 96.4824 108.667 81.5V40.75C108.667 25.6929 96.5436 13.4407 81.6427 13.4407C81.1646 13.4436 80.6884 13.5005 80.2232 13.6105C73.2499 13.9486 66.6733 16.9544 61.8543 22.006C57.0353 27.0577 54.3426 33.7685 54.3334 40.75V81.5C54.3334 96.4824 66.5176 108.667 81.5 108.667Z" fill="#757575"/>
    <path class="rec" d="M74.7083 135.365V149.417H88.2916V135.365C115.044 132.003 135.833 109.162 135.833 81.5H122.25C122.25 103.974 103.974 122.25 81.5 122.25C59.0263 122.25 40.75 103.974 40.75 81.5H27.1666C27.1666 109.156 47.9559 132.003 74.7083 135.365Z" fill="#757575"/>
    <circle class ="recording1 transparente" cx="81.5" cy="81.5" r="81.5" fill="#DA0000"/>
</svg>
