<svg width="135" height="135" viewBox="0 0 135 135" fill="none" xmlns="http://www.w3.org/2000/svg">
    <path d="M2.19727 81.5625C2.19727 81.8555 2.22656 82.0605 2.28516 82.1777C6.03516 97.8809 13.8867 110.61 25.8398 120.366C37.793 130.122 51.7969 135 67.8516 135C76.4062 135 84.6826 133.389 92.6807 130.166C100.679 126.943 107.812 122.344 114.082 116.367L125.42 127.705C126.533 128.818 127.852 129.375 129.375 129.375C130.898 129.375 132.217 128.818 133.33 127.705C134.443 126.592 135 125.273 135 123.75V84.375C135 82.8516 134.443 81.5332 133.33 80.4199C132.217 79.3066 130.898 78.75 129.375 78.75H90C88.4766 78.75 87.1582 79.3066 86.0449 80.4199C84.9316 81.5332 84.375 82.8516 84.375 84.375C84.375 85.8984 84.9316 87.2168 86.0449 88.3301L98.0859 100.371C93.9258 104.238 89.209 107.227 83.9355 109.336C78.6621 111.445 73.1836 112.5 67.5 112.5C59.6484 112.5 52.3242 110.596 45.5273 106.787C38.7305 102.979 33.2812 97.7344 29.1797 91.0547C28.5352 90.0586 26.9824 86.6309 24.5215 80.7715C24.0527 79.4238 23.1738 78.75 21.8848 78.75H5.00977C4.24805 78.75 3.58887 79.0283 3.03223 79.585C2.47559 80.1416 2.19727 80.8008 2.19727 81.5625ZM0 11.25V50.625C0 52.1484 0.556641 53.4668 1.66992 54.5801C2.7832 55.6934 4.10156 56.25 5.625 56.25H45C46.5234 56.25 47.8418 55.6934 48.9551 54.5801C50.0684 53.4668 50.625 52.1484 50.625 50.625C50.625 49.1016 50.0684 47.7832 48.9551 46.6699L36.8262 34.541C45.498 26.5137 55.7227 22.5 67.5 22.5C75.3516 22.5 82.6758 24.4043 89.4727 28.2129C96.2695 32.0215 101.719 37.2656 105.82 43.9453C106.465 44.9414 108.018 48.3691 110.479 54.2285C110.947 55.5762 111.826 56.25 113.115 56.25H130.605C131.367 56.25 132.026 55.9717 132.583 55.415C133.14 54.8584 133.418 54.1992 133.418 53.4375V52.8223C129.609 37.1191 121.699 24.3896 109.688 14.6338C97.6758 4.87793 83.6133 0 67.5 0C58.9453 0 50.625 1.62598 42.5391 4.87793C34.4531 8.12988 27.2754 12.7148 21.0059 18.6328L9.58008 7.29492C8.4668 6.18164 7.14844 5.625 5.625 5.625C4.10156 5.625 2.7832 6.18164 1.66992 7.29492C0.556641 8.4082 0 9.72656 0 11.25Z" fill="#757575"/>
</svg>
