<svg width="inherit" height="inherit" viewBox="0 0 128 128" fill="none" xmlns="http://www.w3.org/2000/svg">
    <path class="sound" d="M0 37.2126H30.1639L75.541 0V128L30.1639 90.7877H0V37.2126ZM92.5902 31.1424C101.508 40.1156 106.055 51.0242 106.229 63.8681C106.229 76.1844 101.683 86.7409 92.5902 95.5383L83.4098 86.0374C89.7051 79.7032 92.8525 72.2258 92.8525 63.6042C92.8525 54.807 89.7049 47.1536 83.4098 40.6435L92.5902 31.1424ZM108.328 15.5712C121.443 28.7671 128 44.6902 128 63.3403C128 81.9905 121.443 98.0015 108.328 111.373L98.6229 101.609C109.115 91.2277 114.361 78.5157 114.361 63.4725C114.361 48.4292 109.115 35.6292 98.6229 25.0724L108.328 15.5712Z" fill="#757575"/>
    <path class ="play transparente" d="M10.6667 0L117.333 64L10.6667 128V0Z" fill="#77DD77"></path>
</svg>
