<svg viewBox="0 0 161 161" fill="none" xmlns="http://www.w3.org/2000/svg">
    <path d="M48.9742 55.2431C48.9742 75.7882 73.8789 92.4467 104.595 92.4467C109.92 92.4518 115.232 91.9345 120.456 90.9021C135.65 107.176 157.03 105.913 157.03 105.913C160.228 103.282 157.03 101.126 157.03 101.126C145.974 95.1963 141.615 88.8997 140.095 83.886C152.392 77.0586 160.22 66.7622 160.22 55.2381C160.22 34.6905 135.311 18.0295 104.6 18.0295C73.8789 18.0295 48.9793 34.688 48.9793 55.2431" fill="#757575"/>
    <path d="M55.6205 54.4004C24.8971 54.4004 0 71.0614 0 91.609C0 103.133 7.83869 113.432 20.125 120.257C18.603 125.271 14.2435 131.567 3.1873 137.497C3.1873 137.497 -0.0100627 139.65 3.1873 142.284C3.1873 142.284 24.5701 143.544 39.762 127.271C44.7857 128.272 50.1037 128.818 55.623 128.818C86.3413 128.818 111.243 112.157 111.243 91.6115C111.246 71.0614 86.3413 54.4004 55.623 54.4004" fill="#757575"/>
</svg>
