<svg viewBox="0 0 109 109" fill="none" xmlns="http://www.w3.org/2000/svg">
    <path d="M76.5912 4.23554L104.956 32.5945C106.149 33.7872 107.095 35.2031 107.74 36.7614C108.386 38.3197 108.718 39.9898 108.718 41.6765C108.718 43.3632 108.386 45.0333 107.74 46.5916C107.095 48.1499 106.149 49.5658 104.956 50.7585L55.3962 100.307L90.2056 100.312C91.2402 100.313 92.2397 100.687 93.0194 101.367C93.7991 102.047 94.3062 102.987 94.4469 104.011L94.4869 104.594C94.4866 105.629 94.1112 106.629 93.43 107.409C92.7488 108.189 91.8082 108.696 90.7822 108.835L90.2056 108.875L42.1985 108.881C40.3954 108.983 38.591 108.703 36.9038 108.058C35.2166 107.414 33.6847 106.42 32.4087 105.142L4.04974 76.777C2.85708 75.5844 1.911 74.1685 1.26553 72.6102C0.620061 71.0519 0.287842 69.3818 0.287842 67.6951C0.287842 66.0084 0.620061 64.3382 1.26553 62.78C1.911 61.2217 2.85708 59.8058 4.04974 58.6131L58.4273 4.23554C59.62 3.04287 61.0359 2.09679 62.5942 1.45132C64.1525 0.805852 65.8226 0.473633 67.5093 0.473633C69.196 0.473633 70.8661 0.805852 72.4244 1.45132C73.9827 2.09679 75.3986 3.04287 76.5912 4.23554ZM52.7761 90.3743L18.783 56.3755L10.1862 64.7496C9.38447 65.5523 8.93414 66.6405 8.93414 67.775C8.93414 68.9095 9.38447 69.9977 10.1862 70.8004L38.4139 99.0338C38.8175 99.4257 39.2943 99.7343 39.8172 99.9418C40.34 100.149 40.8986 100.252 41.4611 100.243C42.0236 100.235 42.5789 100.116 43.0952 99.8924C43.6116 99.6692 44.0789 99.3464 44.4705 98.9425L52.7761 90.3686V90.3743Z" fill="#757575"/>
</svg>
