<svg width="135" height="135" viewBox="0 0 135 135" fill="none" xmlns="http://www.w3.org/2000/svg">
    <path d="M118.125 116.016C117.484 116.016 116.851 115.87 116.275 115.589C115.699 115.308 115.195 114.899 114.8 114.394C108.773 106.676 103.18 100.72 95.4677 96.728C88.3301 93.0445 79.3652 91.1224 67.5 90.7638V111.797C67.4975 112.62 67.254 113.425 66.7996 114.112C66.3453 114.799 65.6998 115.337 64.9429 115.662C64.186 115.986 63.3507 116.082 62.5401 115.937C61.7294 115.792 60.9788 115.414 60.3808 114.848L13.9746 70.5507C13.5622 70.1568 13.234 69.6833 13.0097 69.159C12.7854 68.6346 12.6698 68.0703 12.6698 67.5C12.6698 66.9297 12.7854 66.3653 13.0097 65.841C13.234 65.3166 13.5622 64.8432 13.9746 64.4493L60.3808 20.1524C60.9788 19.5863 61.7294 19.2075 62.5401 19.0629C63.3507 18.9182 64.186 19.0139 64.9429 19.3383C65.6998 19.6626 66.3453 20.2014 66.7996 20.8882C67.254 21.5749 67.4975 22.3797 67.5 23.2031V44.3918C87.0486 45.2909 101.614 52.5419 110.834 65.9786C118.473 77.1082 122.344 92.5225 122.344 111.797C122.344 112.916 121.899 113.989 121.108 114.78C120.317 115.571 119.244 116.016 118.125 116.016Z" fill="#757575"/>
</svg>
